<svg width="12" height="7" viewBox="0 0 12 7" fill="none" xmlns="http://www.w3.org/2000/svg">
<path d="M6.46789 6.78878L11.8073 1.66667C11.9358 1.54345 12 1.39384 12 1.21782C12 1.0418 11.9358 0.892189 11.8073 0.768977L11.2018 0.188119C11.0734 0.0649062 10.9174 0.00330031 10.7339 0.00330033C10.5505 -0.0143014 10.3945 0.0385038 10.2661 0.161716L6 4.25413L1.73394 0.161717C1.6055 0.0385046 1.44954 -0.0143006 1.26605 0.00330115C1.08257 0.00330117 0.926606 0.0649071 0.798165 0.188119L0.192661 0.768978C0.0642209 0.89219 -1.53879e-08 1.04181 0 1.21782C1.53879e-08 1.39384 0.064221 1.54346 0.192661 1.66667L5.53211 6.78878C5.66055 6.92959 5.81651 7 6 7C6.18349 7 6.33945 6.92959 6.46789 6.78878Z" fill="white"/>
</svg>
